<?xml version="1.0" encoding="UTF-8" standalone="no"?>
<!DOCTYPE svg PUBLIC "-//W3C//DTD SVG 1.1//EN"
 "http://www.w3.org/Graphics/SVG/1.1/DTD/svg11.dtd">
<!-- Generated by graphviz version 2.40.1 (20161225.0304)
 -->
<!-- Title: step Pages: 1 -->
<svg width="639pt" height="200pt"
 viewBox="0.00 0.00 639.00 199.59" xmlns="http://www.w3.org/2000/svg" xmlns:xlink="http://www.w3.org/1999/xlink">
<g id="graph0" class="graph" transform="scale(1 1) rotate(0) translate(4 195.5898)">
<title>step</title>
<polygon fill="#ffffff" stroke="transparent" points="-4,4 -4,-195.5898 635,-195.5898 635,4 -4,4"/>
<!-- hypervisor -->
<g id="node1" class="node">
<title>hypervisor</title>
<ellipse fill="none" stroke="#000000" cx="65" cy="-104.2133" rx="65" ry="65"/>
<text text-anchor="middle" x="65" y="-99.2133" font-family="Times,serif" font-size="20.00" fill="#000000">hypervisor</text>
</g>
<!-- monitor -->
<g id="node2" class="node">
<title>monitor</title>
<ellipse fill="#1aaa55" stroke="#1aaa55" cx="399" cy="-104.2133" rx="65" ry="65"/>
<text text-anchor="middle" x="399" y="-99.2133" font-family="Times,serif" font-size="20.00" fill="#ffffff">monitor</text>
</g>
<!-- hypervisor&#45;&gt;monitor -->
<!-- tmp -->
<!-- hypervisor&#45;&gt;tmp -->
<!-- monitor&#45;&gt;hypervisor -->
<g id="edge5" class="edge">
<title>monitor&#45;&gt;hypervisor</title>
<path fill="none" stroke="#000000" stroke-width=".4" stroke-dasharray="5,2" d="M352.0747,-50.8684C336.1895,-36.489 317.2866,-22.8196 297,-15.2133 242.9,5.0711 221.1,5.0711 167,-15.2133 144.9942,-23.4642 124.6165,-38.8494 107.9527,-54.5362"/>
<polygon fill="#000000" stroke="#000000" stroke-width=".4" points="351.1865,-52.4302 356.0473,-54.5362 353.5607,-49.8586 351.1865,-52.4302"/>
<text text-anchor="middle" x="232" y="-19.0133" font-family="Times,serif" font-size="14.00" fill="#000000">ready (pipe)</text>
</g>
<!-- executor -->
<g id="node3" class="node">
<title>executor</title>
<ellipse fill="none" stroke="#000000" cx="566" cy="-104.2133" rx="65" ry="65"/>
<text text-anchor="middle" x="566" y="-99.2133" font-family="Times,serif" font-size="20.00" fill="#000000">executor</text>
</g>
<!-- monitor&#45;&gt;executor -->
<!-- tmp&#45;&gt;monitor -->
</g>
</svg>
