<?xml version="1.0" encoding="UTF-8" standalone="no"?>
<!DOCTYPE svg PUBLIC "-//W3C//DTD SVG 1.1//EN"
 "http://www.w3.org/Graphics/SVG/1.1/DTD/svg11.dtd">
<!-- Generated by graphviz version 2.40.1 (20161225.0304)
 -->
<!-- Title: step Pages: 1 -->
<svg width="569pt" height="138pt"
 viewBox="0.00 0.00 569.00 138.00" xmlns="http://www.w3.org/2000/svg" xmlns:xlink="http://www.w3.org/1999/xlink">
<g id="graph0" class="graph" transform="scale(1 1) rotate(0) translate(4 134)">
<title>step</title>
<polygon fill="#ffffff" stroke="transparent" points="-4,4 -4,-134 565,-134 565,4 -4,4"/>
<!-- hypervisor -->
<g id="node1" class="node">
<title>hypervisor</title>
<ellipse fill="none" stroke="#000000" cx="65" cy="-65" rx="65" ry="65"/>
<text text-anchor="middle" x="65" y="-60" font-family="Times,serif" font-size="20.00" fill="#000000">hypervisor</text>
</g>
<!-- tmp -->
<g id="node2" class="node">
<title>tmp</title>
<ellipse fill="none" stroke="#000000" cx="329" cy="-65" rx="65" ry="65"/>
<text text-anchor="middle" x="329" y="-60" font-family="Times,serif" font-size="20.00" fill="#000000">tmp</text>
</g>
<!-- hypervisor&#45;&gt;tmp -->
<!-- tmp&#45;&gt;hypervisor -->
<g id="edge2" class="edge">
<title>tmp&#45;&gt;hypervisor</title>
<path fill="none" stroke="#000000" stroke-width=".4" d="M260.7954,-49.0007C255.808,-48.2026 250.838,-47.5186 246,-47 202.6925,-42.358 191.3075,-42.358 148,-47 141.5493,-47.6914 134.8641,-48.6769 128.2156,-49.835"/>
<polygon fill="#000000" stroke="#000000" stroke-width=".4" points="260.5642,-50.7363 265.7844,-49.835 261.1415,-47.2842 260.5642,-50.7363"/>
<text text-anchor="middle" x="197" y="-50.8" font-family="Times,serif" font-size="14.00" fill="#000000">send monitor PID</text>
</g>
<!-- monitor -->
<g id="node3" class="node">
<title>monitor</title>
<ellipse fill="none" stroke="#000000" cx="496" cy="-65" rx="65" ry="65"/>
<text text-anchor="middle" x="496" y="-60" font-family="Times,serif" font-size="20.00" fill="#000000">monitor</text>
</g>
<!-- tmp&#45;&gt;monitor -->
</g>
</svg>
